<?xml version="1.0" encoding="UTF-8" standalone="no"?>
<svg xmlns="http://www.w3.org/2000/svg" viewBox="0 0 13100 3000" id="svg2" version="1.1">
  <style>
  .fill-black {
    fill: #000000;
  }
  .fill-white {
    fill: #ffffff;
  }
  .stroke-black {
    stroke: #000000;
  }
  .cloud {
    stroke-width: 1%;
  }
  </style>
  <g class="pc" transform="translate(2607.1344,1303.8279)">
    <g class="screen">
      <rect class="screen-bg fill-white" width="1727.9548" height="1089.5715" x="-2407.6318" y="-814.3515" />
      <path class="screen fill-black" d="m -2387.1344,204.82054 0,-960 q 0,-13 9.5,-22.5 9.5,-9.5 22.5,-9.5 l 1600.00002,0 q 13,0 22.5,9.5 9.5,9.5 9.5,22.5 l 0,960 q 0,13 -9.5,22.5 -9.5,9.5 -22.5,9.5 l -1600.00002,0 q -13,0 -22.5,-9.5 -9.5,-9.5 -9.5,-22.5 z m -128,-960 0,960 q 0,66 47,113 47,47 113,47 l 736,0 0,128 -352,0 q -14,0 -23,9 -9,9 -9,23 l 0,64 q 0,14 9,23 9,9 23,9 l 832,0 q 14,0 23,-9 9,-9 9,-23 l 0,-64 q 0,-14 -9,-23 -9,-9 -23,-9 l -352,0 0,-128 736.00002,0 q 66,0 113,-47 47,-47 47,-113 l 0,-960 q 0,-66 -47,-113 -47,-47 -113,-47 l -1600.00002,0 q -66,0 -113,47 -47,47 -47,113 z"/>
    </g>
    <g class="keyboard">
      <rect class="keyboard-bg fill-white" width="1761.554" height="647.98309" x="-2412.4316" y="625.61066" />
      <path class="keyboard fill-black" d="m -961.58197,1075.0002 0,64.0008 q 0,10.6668 16,10.6668 l 96,0 q 16,0 16,-10.6668 l 0,-64.0008 q 0,-10.6668 -16,-10.6668 l -96,0 q -16,0 -16,10.6668 z m -128.00013,-170.66889 0,64.00085 q 0,10.66681 16,10.66681 l 224.00013,0 q 16,0 16,-10.66681 l 0,-64.00085 q 0,-10.66681 -16,-10.66681 l -224.00013,0 q -16,0 -16,10.66681 z m 128.00013,-170.6689 0,64.00084 q 0,10.6668 16,10.6668 l 96,0 q 16,0 16,-10.6668 l 0,-64.00084 q 0,-10.6668 -16,-10.6668 l -96,0 q -16,0 -16,10.6668 z m -1024.00013,341.33779 0,64.0008 q 0,10.6668 16,10.6668 l 864,0 q 16,0 16,-10.6668 l 0,-64.0008 q 0,-10.6668 -16,-10.6668 l -864,0 q -16,0 -16,10.6668 z m 640,-170.66889 0,64.00085 q 0,10.66681 16,10.66681 l 96,0 q 16,0 16,-10.66681 l 0,-64.00085 q 0,-10.66681 -16,-10.66681 l -96,0 q -16,0 -16,10.66681 z m 128,-170.6689 0,64.00084 q 0,10.6668 16,10.6668 l 96,0 q 16,0 16,-10.6668 l 0,-64.00084 q 0,-10.6668 -16,-10.6668 l -96,0 q -16,0 -16,10.6668 z m -384,170.6689 0,64.00085 q 0,10.66681 16,10.66681 l 96,0 q 16,0 16,-10.66681 l 0,-64.00085 q 0,-10.66681 -16,-10.66681 l -96,0 q -16,0 -16,10.66681 z m 128,-170.6689 0,64.00084 q 0,10.6668 16,10.6668 l 96,0 q 16,0 16,-10.6668 l 0,-64.00084 q 0,-10.6668 -16,-10.6668 l -96,0 q -16,0 -16,10.6668 z m -384,170.6689 0,64.00085 q 0,10.66681 16,10.66681 l 96,0 q 16,0 16,-10.66681 l 0,-64.00085 q 0,-10.66681 -16,-10.66681 l -96,0 q -16,0 -16,10.66681 z m -384,170.66889 0,64.0008 q 0,10.6668 16,10.6668 l 96,0 q 16,0 16,-10.6668 l 0,-64.0008 q 0,-10.6668 -16,-10.6668 l -96,0 q -16,0 -16,10.6668 z m 512,-341.33779 0,64.00084 q 0,10.6668 16,10.6668 l 96,0 q 16,0 16,-10.6668 l 0,-64.00084 q 0,-10.6668 -16,-10.6668 l -96,0 q -16,0 -16,10.6668 z m -256,0 0,64.00084 q 0,10.6668 16,10.6668 l 96,0 q 16,0 16,-10.6668 l 0,-64.00084 q 0,-10.6668 -16,-10.6668 l -96,0 q -16,0 -16,10.6668 z m -256,0 0,234.66975 q 0,10.66681 16,10.66681 l 224,0 q 16,0 16,-10.66681 l 0,-64.00085 q 0,-10.66681 -16,-10.66681 l -112,0 0,-160.00209 q 0,-10.6668 -16,-10.6668 l -96,0 q -16,0 -16,10.6668 z m -128,501.33989 0,-597.34114 1664.00013,0 0,597.34114 -1664.00013,0 z m -128,-597.34114 0,597.34114 q 0,35.3338 37.5,60.3341 37.5,25.0003 90.5,25.0003 l 1664.00013,0 q 53,0 90.5,-25.0003 37.5,-25.0003 37.5,-60.3341 l 0,-597.34114 q 0,-35.3338 -37.5,-60.33412 -37.5,-25.00033 -90.5,-25.00033 l -1664.00013,0 q -53,0 -90.5,25.00033 -37.5,25.00032 -37.5,60.33412 z"/>
    </g>
  </g>
  <g class="cloud" transform="matrix(1.8131473,0,0,1.8131473,-2136.7545,-4609.5465)">
    <path class="fill-white stroke-black" d="m 3855.6112,3684.9147 q 0,159 112.5,271.5 112.5,112.5 271.5,112.5 l 1088,0 q 185,0 316.5,-131.5 131.5,-131.5 131.5,-316.5 0,-132 -71,-241.5 -71,-109.5 -187,-163.5 2,-28 2,-43 0,-212 -150,-362 -150,-150 -362,-150 -158,0 -286.5,88 -128.5,88 -187.5,230 -70,-62 -166,-62 -106,0 -181,75 -75,75 -75,181 0,75 41,138 -129,30 -213,134.5 -84,104.5 -84,239.5 z"/>
  </g>
  <g class="server" transform="translate(9995.0452,-398.73881)">
    <rect class="server-bg fill-white" width="1703.9556" height="263.9931" x="1261.061" y="1166.797" />
    <rect class="server-bg fill-white" width="1703.9556" height="263.9931" x="1261.061" y="1687.5835" />
    <rect class="server-bg fill-white" width="1703.9556" height="263.9931" x="1261.061" y="2191.5703" />
    <path class="server fill-black" d="m 2885.8709,2392.1537 -1023.9999,0 0,-128 1023.9999,0 0,128 z m 0,-512 -1023.9999,0 0,-128 1023.9999,0 0,128 z m -1567.9999,448 q 0,-40 28,-68 28,-28 68,-28 40,0 68,28 28,28 28,68 0,40 -28,68 -28,28 -68,28 -40,0 -68,-28 -28,-28 -28,-68 z m 1567.9999,-960 -1023.9999,0 0,-128 1023.9999,0 0,128 z m -1567.9999,448 q 0,-40 28,-68 28,-28 68,-28 40,0 68,28 28,28 28,68 0,40 -28,68 -28,28 -68,28 -40,0 -68,-28 -28,-28 -28,-68 z m 0,-512 q 0,-40 28,-68 28,-28 68,-28 40,0 68,28 28,28 28,68 0,40 -28,68 -28,28 -68,28 -40,0 -68,-28 -28,-28 -28,-68 z m -96,832 0,384 1791.9998,0 0,-384 -1791.9998,0 z m 0,-512 0,384 1791.9998,0 0,-384 -1791.9998,0 z m 0,-512 0,384 1791.9998,0 0,-384 -1791.9998,0 z"/>
  </g>
  <g class="arrows" transform="translate(903.38865,-2459.411)">
    <g class="arrow fill-black" transform="translate(-1639.692,991.44235)">
      <path d="m 3018.0478,2598.0914 c 0,0 587.5457,-208.7303 1200.4485,-208.7303 596.3193,0 1069.8754,193.3595 1069.8754,193.3595 l 91.7387,-123.5494 c 0,0 -370.1692,-231.8997 -1162.2964,-231.8997 -776.321,0 -1256.1698,210.3558 -1256.1698,210.3558 z"/>
      <path d="m 5513.5919,2615.4461 -217.2175,-441.223 -101.8207,62.7894 132.3669,240.9757 -47.5163,88.2446 -280.007,71.2746 57.6985,96.7296 z"/>
    </g>
    <g class="arrow fill-black" transform="matrix(-1,0,0,-1,6848.7969,6927.6454)">
      <path d="m 3018.0478,2598.0914 c 0,0 587.5457,-208.7303 1200.4485,-208.7303 596.3193,0 1069.8754,193.3595 1069.8754,193.3595 l 91.7387,-123.5494 c 0,0 -370.1692,-231.8997 -1162.2964,-231.8997 -776.321,0 -1256.1698,210.3558 -1256.1698,210.3558 z"/>
      <path d="m 5513.5919,2615.4461 -217.2175,-441.223 -101.8207,62.7894 132.3669,240.9757 -47.5163,88.2446 -280.007,71.2746 57.6985,96.7296 z"/>
    </g>
  </g>
  <g class="arrows" transform="translate(7149.8053,-2483.0575)">
    <g class="arrow fill-black" transform="translate(-1639.692,991.44235)">
      <path d="m 3018.0478,2598.0914 c 0,0 587.5457,-208.7303 1200.4485,-208.7303 596.3193,0 1069.8754,193.3595 1069.8754,193.3595 l 91.7387,-123.5494 c 0,0 -370.1692,-231.8997 -1162.2964,-231.8997 -776.321,0 -1256.1698,210.3558 -1256.1698,210.3558 z"/>
      <path d="m 5513.5919,2615.4461 -217.2175,-441.223 -101.8207,62.7894 132.3669,240.9757 -47.5163,88.2446 -280.007,71.2746 57.6985,96.7296 z"/>
    </g>
    <g class="arrow fill-black" transform="matrix(-1,0,0,-1,6848.7969,6927.6454)">
      <path d="m 3018.0478,2598.0914 c 0,0 587.5457,-208.7303 1200.4485,-208.7303 596.3193,0 1069.8754,193.3595 1069.8754,193.3595 l 91.7387,-123.5494 c 0,0 -370.1692,-231.8997 -1162.2964,-231.8997 -776.321,0 -1256.1698,210.3558 -1256.1698,210.3558 z"/>
      <path d="m 5513.5919,2615.4461 -217.2175,-441.223 -101.8207,62.7894 132.3669,240.9757 -47.5163,88.2446 -280.007,71.2746 57.6985,96.7296 z"/>
    </g>
  </g>
</svg>
