<?xml version="1.0" encoding="UTF-8" standalone="no"?>
<svg xmlns="http://www.w3.org/2000/svg" viewBox="0 0 1536 1536" version="1.1">
  <path fill="#8bc34a" d="m 1017,1072 q -4,-6 3,-13 9,-7 14,-2 4,6 -3,13 -9,7 -14,2 z m 28,-41 q 5,-7 12,-4 6,4 0,12 -7,8 -12,5 -6,-4 0,-13 z m 41,-40 q -2,-4 5,-8 7,-2 8,2 3,5 -4,8 -8,2 -9,-2 z m -21,23 q -2,-1 -1.5,-4.5 0.5,-3.5 3.5,-5.5 6,-7 10,-3 4,4 -1,11 -6,6 -11,2 z m -86.00003,75 q -2,-7 9,-11 9,-3 13.00003,4 2,7 -9.00003,11 -9,3 -13,-4 z m -42,3 q 0,-8 12,-8 10,0 10,8 0,8 -11,8 -11,0 -11,-8 z m -39,-7 q 2,-7 13,-5 11,2 9,9 -2,8 -12,6 -10,-2 -10,-10 z M 256,768 q 0,-212 150,-362 150,-150 362,-150 211.99997,0 362,150 150,150 150,362 0,167 -98,300.5 -98,133.5 -252.00003,185.5 -18,3 -26.5,-5 -8.5,-8 -8.5,-20 0,-52 1,-95 6,1 15.5,2.5 9.5,1.5 35.5,2 26,0.5 48,-4 Q 1017,1130 1038.5,1114.5 1060,1099 1068,1073 q 23,-59 57,-74 2,-1 4.5,-3.5 l 8,-8 q 0,0 7,-9.5 7,-9.5 -4,-7.5 -11,2 -19.5,-3.5 -6,0 -15,2 -9,2 -30,15.5 -21,13.5 -33,35.5 -16,28 -37.5,42 -21.50003,14 -43.50003,14 -22,0 -38,-3.5 -16,-3.5 -30,-9.5 -7,-47 -32.99997,-69 48.99997,-6 85.99997,-18.5 37,-12.5 73.00003,-39 36,-26.5 55.5,-76 Q 1095,811 1095,741 q 0,-79 -53,-137 24,-62 -5,-136 -19,-6 -54.50003,7.5 -35.5,13.5 -60.5,29.5 l -26,16 Q 838,504 768,504 698,504 640,521 629,514 611.5,503 594,492 556,477 q -38,-15 -57,-9 -29,74 -5,136 -53,58 -53,137 0,57 14,100.5 14,43.5 35.5,70 21.5,26.5 53.5,44.5 32,18 62.5,26 30.5,8 68.5,12 -35,31 -35,95 0,40 0.5,89 0.5,49 0.5,51 0,12 -8.5,20 -8.5,8 -26.5,5 Q 452,1202 354,1068.5 256,935 256,768 Z M 0,288 0,1248 Q 0,1367 84.5,1451.5 169,1536 288,1536 l 960,0 q 119,0 203.5,-84.5 Q 1536,1367 1536,1248 l 0,-960 Q 1536,169 1451.5,84.5 1367,0 1248,0 L 288,0 Q 169,0 84.5,84.5 0,169 0,288 Z"/>
</svg>
