<?xml version="1.0" encoding="UTF-8" standalone="no"?>
<svg xmlns="http://www.w3.org/2000/svg" viewBox="0 0 1964.000 1520">
  <style>
    path.wifi {
        fill: #cbecfd;
    }
    path.ban {
        fill: #ff0000;
        stroke: #000000;
        stroke-width: 10;
    }
  </style>
  <g transform="translate(1911.9349,389.04444)">
    <path class="wifi" horiz-adv-x="2048" d="m -929.93491,1005.9558 q 20,0 93,-73.50002 73,-73.5 73,-93.5 0,-32 -62.5,-54 -62.5,-22 -103.5,-22 -41,0 -103.49999,22 -62.5,22 -62.5,54 0,20 73,93.5 72.99999,73.50002 92.99999,73.50002 z M -1199.9349,734.95578 q 2,0 40,-25 38,-25 101.5,-50 63.49999,-25 128.49999,-25 65,0 128.5,25 63.5,25 101,50 37.5,25 40.5,25 18,0 93.5,-75 75.5,-75 75.5,-93 0,-13 -10,-23 -78,-77 -196,-121 -118,-44 -233,-44 -114.99999,0 -232.99999,44 -118,44 -196,121 -10,10 -10,23 0,18 75.5,93 75.5,75 93.5,75 z m -273,-272 q 11,0 23,-8 136,-105 252,-154.5 116,-49.5 267.99999,-49.5 85,0 170.5,22 85.5,22 149,53 63.5,31 113.5,62 50,31 79,53 29,22 31,22 17,0 92,-75 75,-75 75,-93 0,-12 -10,-22 -132,-132 -320,-205.000001 -188,-72.9999997 -380,-72.9999997 -191.99999,0 -379.99999,72.9999997 -188,73.000001 -320,205.000001 -10,10 -10,22 0,18 75,93 75,75 92,75 z m -271,-271 q 11,0 22,-9 179,-157.000001 371.5,-236.500001 192.5,-79.499999 420.49999,-79.499999 228,0 420.5,79.499999 192.5,79.5 371.5,236.500001 11,9 22,9 16.999997,0 92.499997,-75 75.5,-75.000001 75.5,-93.000001 0,-13 -10,-22.99999974 Q -144.93491,-185.04422 -402.93491,-287.04422 q -258,-102 -527,-102 -268.99999,0 -526.99999,102 -258,102 -445,287.99999926 -10,9.99999974 -10,22.99999974 0,18 75.5,93.000001 75.5,75 92.5,75 z"/>
    <path class="ban" d="m -920.72189,637.00075 q 0,-101.11006 54.63714,-185.26377 l 473.52158,472.89358 q -86.03774,55.89313 -186.51978,55.89313 -69.70941,0 -132.82469,-27.31855 -63.11528,-27.31855 -108.96023,-73.16349 -45.8449,-45.84492 -72.84952,-109.58819 -27.0045,-63.7433 -27.0045,-133.45271 z m 627.38474,187.77579 -474.14962,-473.52158 q 84.78171,-57.14915 188.40382,-57.14915 92.94589,0 171.44748,45.84492 78.5016,45.84493 124.34652,124.97452 45.84494,79.12961 45.84494,172.0755 0,101.73807 -55.89314,187.77579 z M -1061.3967,637.00075 q 0,98.598 38.3088,188.4038 38.30873,89.80582 102.67997,154.49113 64.37135,64.68532 153.86317,102.99412 89.49183,38.3088 187.46181,38.3088 97.96999,0 187.46181,-38.3088 89.49181,-38.3088 153.86312,-102.99412 64.37131,-64.68531 102.68009,-154.49113 38.308779,-89.8058 38.308779,-188.4038 0,-98.598 -38.308779,-188.08982 -38.30878,-89.4918 -102.68009,-154.17711 -64.37131,-64.68532 -153.86312,-102.99409 -89.49182,-38.30878 -187.46181,-38.30878 -97.96998,0 -187.46181,38.30878 -89.49182,38.30877 -153.86317,102.99409 -64.37124,64.68531 -102.67997,154.17711 -38.3088,89.49182 -38.3088,188.08982 z" style="fill:#ff0000"/>
  </g>
</svg>
